<svg xmlns="http://www.w3.org/2000/svg" id="i-price" viewBox="0 0 24 24" heigth='20px' width='20px' fill="none"><g opacity=".6" stroke="#fff" stroke-width="1.25" stroke-linecap="round" stroke-linejoin="round"><path d="M8 7h4M8 11h4M8 15h4M11.776 20.888l-3.329-1.665a.998.998 0 00-.894 0l-2.829 1.415A.5.5 0 014 20.191V4a1 1 0 011-1h14a1 1 0 011 1v16.191a.5.5 0 01-.724.447l-2.829-1.415a.998.998 0 00-.894 0l-3.329 1.665a.498.498 0 01-.448 0v0z"></path><path d="M16 6.99c-.003 0-.005.002-.005.005S15.997 7 16 7s.005-.002.005-.005-.002-.005-.005-.005M16 10.99c-.003 0-.005.002-.005.005S15.997 11 16 11s.005-.002.005-.005-.002-.005-.005-.005M16 14.99c-.003 0-.005.002-.005.005S15.997 15 16 15s.005-.002.005-.005-.002-.005-.005-.005"></path></g></svg>