<svg xmlns="http://www.w3.org/2000/svg" id="i-cash-register" viewBox="0 0 24 24" heigth='20px' width='20px' fill="none"><g opacity=".6" stroke="#fff" stroke-width="1.25" stroke-linecap="round" stroke-linejoin="round"><path d="M10 3v6M13 5.5v1M16 5.5v1M20.923 15.731L19.077 9.27A2.007 2.007 0 0119 8.72V4a1 1 0 00-1-1H6a1 1 0 00-1 1v4.72c0 .186-.026.371-.077.549L3.077 15.73a2.007 2.007 0 00-.077.55V20a1 1 0 001 1h16a1 1 0 001-1v-3.72c0-.186-.026-.371-.077-.549v0zM4.98 9h14.04M3.04 16h17.92"></path></g></svg>