<svg xmlns="http://www.w3.org/2000/svg" id="i-corners" viewBox="0 0 380 6" fill="none"><path d="M4 0l6 6H-2l6-6zM16 0l6 6H10l6-6zM28 0l6 6H22l6-6zM40 0l6 6H34l6-6zM52 0l6 6H46l6-6zM64 0l6 6H58l6-6zM76 0l6 6H70l6-6zM88 0l6 6H82l6-6zM100 0l6 6H94l6-6zM112 0l6 6h-12l6-6zM124 0l6 6h-12l6-6zM136 0l6 6h-12l6-6zM148 0l6 6h-12l6-6zM160 0l6 6h-12l6-6zM172 0l6 6h-12l6-6zM184 0l6 6h-12l6-6zM196 0l6 6h-12l6-6zM208 0l6 6h-12l6-6zM220 0l6 6h-12l6-6zM232 0l6 6h-12l6-6zM244 0l6 6h-12l6-6zM256 0l6 6h-12l6-6zM268 0l6 6h-12l6-6zM280 0l6 6h-12l6-6zM292 0l6 6h-12l6-6zM304 0l6 6h-12l6-6zM316 0l6 6h-12l6-6zM328 0l6 6h-12l6-6zM340 0l6 6h-12l6-6zM352 0l6 6h-12l6-6zM364 0l6 6h-12l6-6zM376 0l6 6h-12l6-6z" fill="#fff"></path></svg>