<svg xmlns="http://www.w3.org/2000/svg" id="i-taxes" viewBox="0 0 21 21" heigth='20px' width='20px' fill="#fff"><g opacity=".5"><path d="M17.514 18.776h-15V3.512h8.75V1.014h-8.75a2.506 2.506 0 00-2.5 2.498v14.99A2.506 2.506 0 002.514 21h15c1.375 0 2.5-1.124 2.5-2.498V9.758h-2.5v9.018z"></path><path d="M10.014 6.01h-5V8.51h5V6.01zM5.014 9.758v2.498h10V9.758h-10zM13.672 6.395l1.322.995L19.1 1.94 17.777.943l-1.54 2.045-2.565 3.406zM15.014 13.505h-10v2.498h10v-2.498zM18.758 7.26c-.676-.013-1.268-.625-1.243-1.285a1.27 1.27 0 011.303-1.213 1.23 1.23 0 011.196 1.249 1.244 1.244 0 01-1.256 1.248zM13.758 1.014a1.27 1.27 0 011.256 1.26c0 .673-.544 1.214-1.22 1.238a1.245 1.245 0 01-1.28-1.225c0-.697.543-1.273 1.244-1.273z"></path></g></svg>