<svg width="32" height="32" viewBox="0 0 32 32" fill="none" xmlns="http://www.w3.org/2000/svg">
  <rect width="32" height="32" rx="6" fill="white" fill-opacity="0.1"/>
  <path d="M16.3223 23.2832C18.1484 23.2832 19.6621 22.8242 20.8633 21.8867C22.0645 20.9492 22.8164 19.875 23.1289 18.6445L19.8867 17.8242C19.6914 18.4688 19.2715 19.0156 18.627 19.4746C17.9824 19.9336 17.2012 20.1582 16.2832 20.1582C15.1113 20.1582 14.1543 19.748 13.4219 18.9277C12.6895 18.1074 12.3281 17.1309 12.3281 15.9785C12.3281 14.8262 12.6895 13.8398 13.4121 13.0391C14.1348 12.2383 15.0918 11.8379 16.2832 11.8379C17.1914 11.8379 17.9727 12.082 18.627 12.5508C19.2715 13.0293 19.6914 13.5859 19.8867 14.2207L23.1289 13.4199C22.8164 12.1895 22.0645 11.0957 20.8535 10.1484C19.6426 9.20117 18.1191 8.72266 16.2637 8.72266C14.1738 8.72266 12.4258 9.42578 11.0293 10.8125C9.62305 12.209 8.92969 13.9375 8.92969 15.998C8.92969 18.0879 9.62305 19.8164 11.0293 21.2031C12.4355 22.5898 14.1934 23.2832 16.3223 23.2832Z" fill="url(#paint0_linear)"/>
  <defs>
    <linearGradient id="paint0_linear" x1="10" y1="23" x2="30.5" y2="2.5" gradientUnits="userSpaceOnUse">
      <stop stop-color="white"/>
      <stop offset="1" stop-color="white" stop-opacity="0"/>
    </linearGradient>
  </defs>
</svg>
